<?xml version="1.0" encoding="UTF-8"?>
<!-- Generated by Pixelmator Pro 3.7 -->
<svg width="248" height="217" viewBox="0 0 248 217" xmlns="http://www.w3.org/2000/svg">
    <g id="CodeCompanion-copy">
        <linearGradient id="linearGradient1" x1="125.738294" y1="163.841641" x2="244.995578" y2="163.841641" gradientUnits="userSpaceOnUse">
            <stop offset="1e-05" stop-color="#8fc260" stop-opacity="1"/>
            <stop offset="0.5213" stop-color="#74ae5b" stop-opacity="1"/>
            <stop offset="1" stop-color="#4a9540" stop-opacity="1"/>
        </linearGradient>
        <path id="Path" fill="url(#linearGradient1)" stroke="none" d="M 164.706268 188.501724 L 164.65921 188.472717 C 167.668976 193.185013 169.008362 198.287643 169.1315 201.732986 C 169.276352 197.67691 171.105682 191.324036 175.365417 186.01564 L 244.995804 142.527756 L 218.357605 125.950241 L 173.212158 153.803925 C 170.207352 155.657837 166.407486 155.631683 163.428329 153.736725 L 153.312988 147.302017 L 125.738266 164.420456 L 164.706268 188.501724 Z"/>
        <linearGradient id="linearGradient2" x1="104.683369" y1="74.980357" x2="247.799534" y2="74.980357" gradientUnits="userSpaceOnUse">
            <stop offset="1e-05" stop-color="#8fc260" stop-opacity="1"/>
            <stop offset="0.5213" stop-color="#74ae5b" stop-opacity="1"/>
            <stop offset="1" stop-color="#4a9540" stop-opacity="1"/>
        </linearGradient>
        <path id="path1" fill="url(#linearGradient2)" stroke="none" d="M 247.068832 61.777542 L 223.609268 76.635254 L 169.347977 41.514954 C 165.874939 39.267044 161.40892 39.255814 157.924622 41.486206 L 156.957016 42.10556 L 110.907219 71.583069 C 108.685707 73.005081 106.9701 75.021088 105.907066 77.348221 C 105.114624 79.083176 104.683502 80.990433 104.683502 82.956772 L 104.683502 110.139557 L 127.560806 96.82489 L 127.560806 90.966949 L 129.430939 89.778152 L 162.024612 69.057785 C 163.805588 67.92569 166.083054 67.936417 167.853043 69.084976 L 184.442047 79.850266 L 215.152802 99.779503 L 243.469742 80.554062 C 246.178055 78.715317 247.799561 75.654312 247.799561 72.380753 L 247.799561 66.959671 C 247.799561 65.182877 247.542542 63.442947 247.068832 61.777542 Z"/>
        <linearGradient id="linearGradient3" x1="163.280214" y1="124.510333" x2="163.280214" y2="7.832371" gradientUnits="userSpaceOnUse">
            <stop offset="1e-05" stop-color="#448236" stop-opacity="1"/>
            <stop offset="0.569" stop-color="#77b142" stop-opacity="1"/>
        </linearGradient>
        <path id="path2" fill="url(#linearGradient3)" stroke="none" d="M 238.86647 50.872101 L 173.5923 10.217255 C 168.467438 7.025269 161.969986 7.038589 156.858185 10.251236 L 131.123535 26.425598 L 86.872231 54.237701 C 83.418266 56.408478 80.986298 59.799438 79.99202 63.654724 C 79.664162 64.926407 79.491615 66.248001 79.491615 67.593674 L 79.491615 110.943504 L 79.491615 124.219215 L 79.991493 124.510193 L 104.683243 110.139297 L 104.683243 82.956772 C 104.683243 80.990158 105.114365 79.082916 105.906807 77.348221 C 106.969841 75.021088 108.685455 73.005081 110.906967 71.583069 L 156.957016 42.10556 L 157.924622 41.486206 C 161.40892 39.255814 165.874939 39.267044 169.347977 41.514954 L 223.609268 76.635254 L 247.068832 61.777542 C 245.79715 57.30838 242.91391 53.392975 238.86647 50.872101 Z"/>
        <linearGradient id="linearGradient4" x1="5.845436" y1="152.537501" x2="143.882725" y2="24.885186" gradientUnits="userSpaceOnUse">
            <stop offset="0.5164" stop-color="#36a6db" stop-opacity="1"/>
            <stop offset="0.8802" stop-color="#2e71b9" stop-opacity="1"/>
        </linearGradient>
        <path id="path3" fill="url(#linearGradient4)" stroke="none" d="M 28.779715 126.323326 C 26.937828 125.197021 25.814655 123.193825 25.814655 121.035057 L 25.814655 75.164352 C 25.814655 69.055161 28.992271 63.385956 34.203148 60.197372 L 74.60466 35.476868 C 80.502617 31.868118 87.970039 32.059494 93.675316 35.965775 L 104.333153 43.263245 L 131.123001 26.425598 L 91.139557 2.157135 C 86.343582 -0.753815 80.31752 -0.716675 75.557892 2.253098 L 9.182507 43.666916 C 3.470955 47.230423 -0 53.487091 -0 60.21933 L -0 126.8619 C -0 133.521729 3.396969 139.72139 9.010215 143.305542 L 75.430832 185.717331 C 77.562401 187.078415 79.95594 187.842896 82.382675 188.01413 L 82.382675 159.100296 L 28.779715 126.323326 Z"/>
        <linearGradient id="linearGradient5" x1="82.38281" y1="134.518433" x2="184.442071" y2="134.518433" gradientUnits="userSpaceOnUse">
            <stop offset="0.1198" stop-color="#2e71b9" stop-opacity="1"/>
            <stop offset="0.4836" stop-color="#36a6db" stop-opacity="1"/>
        </linearGradient>
        <path id="path4" fill="url(#linearGradient5)" stroke="none" d="M 181.863663 92.074173 C 180.714859 95.672707 178.316101 98.740257 175.118622 100.751816 L 82.382675 159.100296 L 82.382675 188.01413 C 85.444733 188.230347 88.56012 187.500641 91.271057 185.817719 L 103.150124 178.443115 L 125.738007 164.420456 L 153.312714 147.302017 L 174.843842 133.935333 C 180.811874 130.230377 184.441772 123.704681 184.441772 116.680153 L 184.441772 80.985703 C 183.759155 85.465591 182.769058 89.238266 181.863663 92.074173 Z"/>
        <linearGradient id="linearGradient6" x1="57.521413" y1="130.150063" x2="166.629598" y2="15.006606" gradientUnits="userSpaceOnUse">
            <stop offset="0.0174" stop-color="#2e71b9" stop-opacity="1"/>
            <stop offset="0.2864" stop-color="#36a3d9" stop-opacity="1"/>
            <stop offset="0.5826" stop-color="#2e71b9" stop-opacity="1"/>
            <stop offset="1" stop-color="#359fd6" stop-opacity="1"/>
        </linearGradient>
        <path id="path5" fill="url(#linearGradient6)" stroke="none" d="M 167.853043 69.084976 C 166.082779 67.936157 163.805328 67.925446 162.024612 69.057785 L 151.644424 75.656677 L 129.430939 89.778152 L 134.796844 92.613533 L 127.560806 96.82489 L 104.683502 110.139557 L 79.99176 124.510468 L 79.491867 124.219467 L 55.064709 110.002563 C 51.670353 108.027084 49.582184 104.395851 49.582184 100.468414 L 49.582184 94.082329 L 49.582184 87.696518 C 49.582184 83.769058 51.670353 80.137863 55.064709 78.162369 L 79.99176 63.654724 L 79.992279 63.654984 C 80.986557 59.799713 83.418526 56.408752 86.87249 54.237946 L 104.333679 43.263504 L 93.675842 35.966034 C 87.970566 32.059753 80.503143 31.868118 74.605186 35.477127 L 34.203674 60.197632 C 28.992531 63.38623 25.815178 69.05542 25.815178 75.164627 L 25.815178 121.035332 C 25.815178 123.194077 26.938351 125.197548 28.780237 126.323593 L 74.774345 154.447845 L 74.774345 154.447845 C 74.774345 154.447845 82.60778 161.853836 82.60778 167.313614 C 82.60778 167.313614 85.000015 158.788651 89.026283 154.920807 L 89.026283 154.920807 L 175.119141 100.75209 C 178.31662 98.740257 180.715134 95.672974 181.864182 92.074425 C 182.769577 89.238525 183.759659 85.465866 184.442566 80.985977 L 184.442566 79.850525 L 167.853043 69.084976 Z"/>
        <linearGradient id="linearGradient7" x1="115.401034" y1="166.597308" x2="164.171692" y2="211.037088" gradientUnits="userSpaceOnUse">
            <stop offset="0.025" stop-color="#448236" stop-opacity="1"/>
            <stop offset="0.1904" stop-color="#58953b" stop-opacity="1"/>
            <stop offset="0.4218" stop-color="#6fa940" stop-opacity="1"/>
            <stop offset="0.569" stop-color="#77b142" stop-opacity="1"/>
        </linearGradient>
        <path id="path6" fill="url(#linearGradient7)" stroke="none" d="M 164.658951 188.472717 L 125.738266 164.420456 L 103.150375 178.443115 L 158.34111 214.443436 C 161.588791 216.561935 165.428375 217.363525 169.130997 216.849274 L 169.130997 201.732986 C 169.008102 198.287643 167.668716 193.184738 164.658951 188.472717 Z"/>
        <linearGradient id="linearGradient8" x1="179.844595" y1="197.212137" x2="246.963194" y2="156.17811" gradientUnits="userSpaceOnUse">
            <stop offset="1e-05" stop-color="#448236" stop-opacity="1"/>
            <stop offset="0.569" stop-color="#77b142" stop-opacity="1"/>
        </linearGradient>
        <path id="path7" fill="url(#linearGradient8)" stroke="none" d="M 244.99556 142.528015 L 175.365158 186.01564 C 171.105438 191.324036 169.276093 197.676651 169.131241 201.732986 L 169.131241 216.849274 C 171.226746 216.558273 173.279083 215.850296 175.154175 214.710373 L 239.762955 175.43335 C 244.753189 172.399521 247.799561 166.982635 247.799561 161.142715 L 247.799561 147.5755 C 247.799561 145.521576 246.73941 143.613022 244.99556 142.528015 Z"/>
    </g>
</svg>
